<svg xmlns="http://www.w3.org/2000/svg" viewBox="0 0 64 64">
  <defs>
    <linearGradient id="csageGradient" x1="8" y1="8" x2="56" y2="56" gradientUnits="userSpaceOnUse">
      <stop offset="0" stop-color="#2563eb" />
      <stop offset="1" stop-color="#0f766e" />
    </linearGradient>
  </defs>
  <rect x="6" y="6" width="52" height="52" rx="14" fill="#eff6ff" />
  <path
    d="M45.6 20.1A19.7 19.7 0 0 0 31.8 15C20.6 15 12 23.3 12 34s8.6 19 19.8 19c6 0 11.1-2 14.9-6l-5.2-4.8c-2.4 2.3-5.5 3.6-9.2 3.6-6.8 0-11.8-4.7-11.8-11.8s5-11.8 11.8-11.8c3.2 0 6.1 1.1 8.3 3.1l-6.1 6.1H52V14.8z"
    fill="url(#csageGradient)"
  />
</svg>
